<svg width="820" height="240" viewBox="0 0 820 240" fill="none" xmlns="http://www.w3.org/2000/svg">
  <g id="vts-chart">
    <path
      d="M420 86 L515 56 L600 80 C628 88 655 86 685 72 L718 56 M718 56 L710 78 L734 70 Z"
      fill="#7fc969"
      stroke="#7fc969"
      stroke-width="10"
      stroke-linecap="round"
      stroke-linejoin="round"
      pathLength="1"
    />
  </g>
  <g id="vts-candles" fill="#7fc969">
    <g>
      <rect x="585" y="52" width="36" height="54" rx="3" />
      <rect x="601" y="40" width="4" height="18" rx="2" />
      <rect x="601" y="102" width="4" height="16" rx="2" />
    </g>
    <g>
      <rect x="646" y="32" width="38" height="68" rx="3" />
      <rect x="663" y="18" width="4" height="18" rx="2" />
      <rect x="663" y="100" width="4" height="18" rx="2" />
    </g>
  </g>
  <g id="vts-wordmark" fill="#ffffff">
    <text
      x="410"
      y="160"
      text-anchor="middle"
      font-family="'Montserrat', 'Poppins', 'Segoe UI', Arial, sans-serif"
      font-size="72"
      font-weight="700"
      letter-spacing="8"
    >
      VERACITY
    </text>
  </g>
  <g id="vts-subtitle">
    <rect x="180" y="176" width="460" height="40" rx="6" fill="#2b313b" />
    <text
      x="410"
      y="203"
      text-anchor="middle"
      font-family="'Montserrat', 'Poppins', 'Segoe UI', Arial, sans-serif"
      font-size="26"
      font-weight="600"
      letter-spacing="6"
      fill="#ffffff"
    >
      TRADING SUITE
    </text>
  </g>
</svg>
